<svg viewBox="0 0 1024 1024" version="1.1" xmlns="http://www.w3.org/2000/svg" p-id="5835" width="200" height="200"><path d="M938.666667 512c0-234.666667-192-426.666667-426.666667-426.666667S85.333333 277.333333 85.333333 512s192 426.666667 426.666667 426.666667 426.666667-192 426.666667-426.666667z" fill="#DCDFE6" ></path><path d="M512 326.4a32 32 0 0 1 31.850667 28.928l0.149333 3.072v192a32 32 0 0 1-63.850667 3.072L480 550.4v-192a32 32 0 0 1 32-32zM514.346667 631.466667a34.133333 34.133333 0 0 1 3.114666 68.117333l-3.114666 0.149333h-2.56a34.133333 34.133333 0 0 1-3.093334-68.117333l3.093334-0.149333h2.56z" fill="var(--uv-error-color)"></path></svg>